<?xml version="1.0" encoding="utf-8"?>
<!-- Generator: Adobe Illustrator 23.1.1, SVG Export Plug-In . SVG Version: 6.00 Build 0)  -->
<svg version="1.1" id="图层_1" xmlns="http://www.w3.org/2000/svg" xmlns:xlink="http://www.w3.org/1999/xlink" x="0px" y="0px"
	 viewBox="0 0 256 256" style="enable-background:new 0 0 256 256;" xml:space="preserve">
<style type="text/css">
	.st0{clip-path:url(#SVGID_2_);}
</style>
<g>
	<defs>
		<rect id="SVGID_1_" x="17.36" y="22" width="220.86" height="211.4"/>
	</defs>
	<clipPath id="SVGID_2_">
		<use xlink:href="#SVGID_1_"  style="overflow:visible;"/>
	</clipPath>
	<path class="st0" d="M238.22,154.82c-0.49,18.27-8.12,33.72-25.27,42.71c-20.41,10.7-41.05,21.19-62.34,29.93
		c-31.96,13.12-65.4,3.96-87.88-22.35c-11.08-12.97-22.33-25.81-33.06-39.07C8.74,140.21,15.12,106.77,44.1,89.82
		c27.1-15.85,54.32-31.49,81.49-47.21c8.46-4.89,16.77-10.07,25.46-14.51c30.13-15.38,64.53-0.61,71.83,32.49
		c6.55,29.74,10.16,60.13,15.04,90.23C238.09,151.84,238.08,152.89,238.22,154.82 M126.39,223.19c4.69-1.14,12.98-1.95,20.21-5.16
		c20.49-9.09,40.81-18.63,60.68-28.99c16.09-8.4,23.49-25.27,20.56-42.54c-4.41-25.98-9.68-51.86-12.87-77.99
		c-3.66-30-35.4-47.25-62.97-30.44C117.59,59.06,82.33,78.65,47.52,98.98c-21.76,12.71-26.82,40.97-10.73,60.23
		c11.6,13.89,23.37,27.63,35.36,41.18C85.6,215.59,103.05,222.17,126.39,223.19"/>
</g>
</svg>
